<svg xmlns="http://www.w3.org/2000/svg" version="1.1" xmlns:xlink="http://www.w3.org/1999/xlink" width="512" height="512" x="0" y="0" viewBox="0 0 24 24" style="enable-background:new 0 0 512 512" xml:space="preserve" class=""><g><path d="M12 22C6.5 22 2 17.5 2 12S6.5 2 12 2s10 4.5 10 10-4.5 10-10 10zm0-18.2c-4.5 0-8.2 3.7-8.2 8.2s3.7 8.2 8.2 8.2 8.2-3.7 8.2-8.2-3.7-8.2-8.2-8.2z" fill="#f4f4f5" opacity="1" data-original="#000000" class=""></path><path d="M12 18.4c-3.5 0-6.4-2.9-6.4-6.4S8.5 5.6 12 5.6s6.4 2.9 6.4 6.4-2.9 6.4-6.4 6.4zm0-10.9c-2.5 0-4.5 2-4.5 4.5s2 4.5 4.5 4.5 4.5-2 4.5-4.5-2-4.5-4.5-4.5z" fill="#f4f4f5" opacity="1" data-original="#000000" class=""></path><path d="M12 14.7c-1.5 0-2.7-1.2-2.7-2.7s1.2-2.7 2.7-2.7 2.7 1.2 2.7 2.7-1.2 2.7-2.7 2.7z" fill="#f4f4f5" opacity="1" data-original="#000000" class=""></path></g></svg>