<svg xmlns="http://www.w3.org/2000/svg" version="1.1" xmlns:xlink="http://www.w3.org/1999/xlink" width="512" height="512" x="0" y="0" viewBox="0 0 512 512" style="enable-background:new 0 0 512 512" xml:space="preserve" class=""><g><path d="M377.2 498.4c-5.5 0-10-4.5-10-10V23.6c0-5.5 4.5-10 10-10h108.3c5.5 0 10 4.5 10 10v464.8c0 5.5-4.5 10-10 10zm98.3-20V33.6h-88.3v444.7zm-271.6 20c-5.5 0-10-4.5-10-10V136.6c0-5.5 4.5-10 10-10h108.3c5.5 0 10 4.5 10 10v351.8c0 5.5-4.5 10-10 10zm98.3-20V146.7h-88.3v331.7zm-275.7 20c-5.5 0-10-4.5-10-10V249.1c0-5.5 4.5-10 10-10h108.4c5.5 0 10 4.5 10 10v239.3c0 5.5-4.5 10-10 10zm98.3-20V259.1H36.5v219.3z" fill="#f4f4f5" opacity="1" data-original="#000000"></path></g></svg>